Poster: 
http://imgh.us/ssrajamouli+eega+hd+wallpapers+01+252892529.jpg

Info:

Format : AVI
Format/Info : Audio Video Interleave
File size : 699 MiB
Duration : 2h 11mn
Overall bit rate : 742 Kbps

Video
ID : 0
Format : MPEG-4 Visual
Format profile : Simple@L3
Format settings, BVOP : No
Format settings, QPel : No
Format settings, GMC : No warppoints
Format settings, Matrix : Default (H.263)
Codec ID : XVID
Codec ID/Hint : XviD
Duration : 2h 11mn
Bit rate : 665 Kbps
Width : 608 pixels
Height : 256 pixels
Display aspect ratio : 2.40:1
Frame rate : 23.976 fps
Color space : YUV
Chroma subsampling : 4:2:0
Bit depth : 8 bits
Scan type : Progressive
Compression mode : Lossy
Bits/(Pixel*Frame) : 0.178
Stream size : 626 MiB (90%)
Writing library : XviD 1.1.2 (UTC 2006-11-01)

Audio
ID : 1
Format : MPEG Audio
Format version : Version 1
Format profile : Layer 3
Mode : Joint stereo
Mode extension : MS Stereo
Codec ID : 55
Codec ID/Hint : MP3
Duration : 2h 11mn
Source duration : 2h 11mn
Bit rate mode : Constant
Bit rate : 64.0 Kbps
Channel(s) : 2 channels
Sampling rate : 48.0 KHz
Compression mode : Lossy
Stream size : 60.3 MiB (9%)
Alignment : Split accross interleaves
Interleave, duration : 24 ms (0.58 video frame)


SCREENS:
 
http://imgh.us/Eega_(2012)_Telugu_Movie_DVDScr_XviD_-_Exclusive-006.jpg 
http://imgh.us/Eega_(2012)_Telugu_Movie_DVDScr_XviD_-_Exclusive-013.jpg 
http://imgh.us/Eega_(2012)_Telugu_Movie_DVDScr_XviD_-_Exclusive-016.jpg 
http://imgh.us/Eega_(2012)_Telugu_Movie_DVDScr_XviD_-_Exclusive-018.jpg 
http://imgh.us/Eega_(2012)_Telugu_Movie_DVDScr_XviD_-_Exclusive-020_1.jpg